<svg xmlns="http://www.w3.org/2000/svg" viewBox="0 0 18.46 20.39"><defs><style>.cls-1{fill:none;stroke:#6a7e89;stroke-linecap:round;stroke-miterlimit:10;stroke-width:2px;}</style></defs><title>delete_sml</title><g id="Layer_2" data-name="Layer 2"><g id="Layer_1-2" data-name="Layer 1"><path class="cls-1" d="M2.78,2.57H15.36a0,0,0,0,1,0,0V16.39a3,3,0,0,1-3,3H5.78a3,3,0,0,1-3-3V2.57A0,0,0,0,1,2.78,2.57Z"/><line class="cls-1" x1="1" y1="2.57" x2="17.46" y2="2.57"/><path class="cls-1" d="M7.68,1h2.79a1.26,1.26,0,0,1,1.26,1.26v.31a0,0,0,0,1,0,0H6.41a0,0,0,0,1,0,0V2.26A1.26,1.26,0,0,1,7.68,1Z"/><line class="cls-1" x1="6.86" y1="6.44" x2="6.86" y2="15.54"/><line class="cls-1" x1="11.12" y1="6.44" x2="11.12" y2="15.54"/></g></g></svg>